<svg width="75" height="72" fill="none" xmlns="http://www.w3.org/2000/svg"><path d="M70.9 47.7H5.1C2.8 47.7 1 49.6 1 52v3.5c0 2.4 1.9 4.3 4.1 4.3H6v1.1C6 66.4 10.3 71 15.6 71h44.6c5.3 0 9.6-4.5 9.6-10.1v-1.1h.9c2.3 0 4.1-1.9 4.1-4.3V52c.2-2.3-1.7-4.3-3.9-4.3zM67 60.9c0 3.9-3 7-6.7 7H15.6c-3.7 0-6.7-3.2-6.7-7v-1.1H67v1.1zm5.1-5.4c0 .7-.6 1.3-1.2 1.3H5c-.7 0-1.2-.6-1.2-1.3V52c0-.7.6-1.3 1.2-1.3h65.8c.7 0 1.2.6 1.2 1.3.1 0 .1 3.5.1 3.5zM16.6 39.4l5.4 4.1 5.3-4.1 5.3 4.1 5.3-4.1 5.4 4.1 5.3-4.1 5.3 4.1 5.4-4.1 5.3 4.1 6.2-4.7-1.7-2.5-4.5 3.4-5.3-4.1-5.4 4.1-5.3-4.1-5.3 4.1-5.4-4.1-5.3 4.1-5.3-4.1-5.3 4.1-5.4-4.1-5.3 4.1-4.5-3.4-1.7 2.5 6.2 4.7 5.3-4.1zM9 32.5h60.8c0-.6.1-1.2.1-1.9v-1.2C69.2 13.7 55.2 1 38 1 20.7 1 6.7 13.7 6 29.5v1.2c0 .6 0 1.3.1 1.9H9v-.1zM38 4c15.6 0 28.4 11.3 29 25.5H9C9.6 15.4 22.4 4 38 4z" fill="#81B3D2"/><path d="M38 18.3c1.05 0 1.9-.895 1.9-2s-.85-2-1.9-2c-1.05 0-1.9.895-1.9 2s.85 2 1.9 2zM30.2 13.2c1.05 0 1.9-.895 1.9-2s-.85-2-1.9-2c-1.05 0-1.9.895-1.9 2s.85 2 1.9 2zM45.7 13.2c1.05 0 1.9-.895 1.9-2s-.85-2-1.9-2c-1.05 0-1.9.895-1.9 2s.85 2 1.9 2z" fill="#81B3D2"/></svg>