<svg width="15" height="15" fill="none" xmlns="http://www.w3.org/2000/svg"><g opacity=".3" fill="#000"><path d="M5.5 10c.3 0 .5-.2.5-.5S5.8 9 5.5 9s-.5.2-.5.5.2.5.5.5z"/><path d="M14 2h-2V0h-1v2H4V0H3v2H1c-.6 0-1 .4-1 1v11c0 .5.4 1 1 1h13c.5 0 1-.5 1-1V3c0-.6-.5-1-1-1zm0 12H1V7h13v7zM1 6V3h2v2h1V3h7v2h1V3h2v3H1z"/><path d="M7.5 10c.3 0 .5-.2.5-.5S7.8 9 7.5 9s-.5.2-.5.5.2.5.5.5zM9.5 10c.3 0 .5-.2.5-.5S9.8 9 9.5 9s-.5.2-.5.5.2.5.5.5zM5.5 11c-.3 0-.5.2-.5.5s.2.5.5.5.5-.2.5-.5-.2-.5-.5-.5zM3.5 10c.3 0 .5-.2.5-.5S3.8 9 3.5 9s-.5.2-.5.5.2.5.5.5zM3.5 11c-.3 0-.5.2-.5.5s.2.5.5.5.5-.2.5-.5-.2-.5-.5-.5zM7.5 11c-.3 0-.5.2-.5.5s.2.5.5.5.5-.2.5-.5-.2-.5-.5-.5zM9.5 11c-.3 0-.5.2-.5.5s.2.5.5.5.5-.2.5-.5-.2-.5-.5-.5zM11.5 10c.3 0 .5-.2.5-.5s-.2-.5-.5-.5-.5.2-.5.5.2.5.5.5zM11.5 11c-.3 0-.5.2-.5.5s.2.5.5.5.5-.2.5-.5-.2-.5-.5-.5z"/></g></svg>