<svg width="16" height="16" viewBox="0 0 16 16" fill="none" xmlns="http://www.w3.org/2000/svg">
<g opacity="0.2">
<path d="M15.3 2.29999H13.1H2.8H0.6C0.3 2.29999 0 2.49999 0 2.79999C0 3.09999 0.3 3.39999 0.6 3.39999H2.3V15.4C2.3 15.7 2.6 16 2.9 16H13.1C13.4 16 13.7 15.7 13.7 15.4V3.39999H15.4C15.7 3.39999 16 3.09999 16 2.79999C16 2.49999 15.6 2.29999 15.3 2.29999ZM12.5 14.8H3.4V3.39999H12.5V14.8Z" fill="black"/>
<path d="M6.20001 1.2H9.60001C9.90001 1.2 10.2 0.9 10.2 0.6C10.2 0.3 10 0 9.70001 0H6.20001C5.90001 0 5.70001 0.3 5.70001 0.6C5.70001 0.9 5.90001 1.2 6.20001 1.2Z" fill="black"/>
<path d="M6.19998 12C6.49998 12 6.79998 11.7 6.79998 11.4V5.69998C6.79998 5.39998 6.49998 5.09998 6.19998 5.09998C5.89998 5.09998 5.59998 5.39998 5.59998 5.69998V11.4C5.69998 11.7 5.89998 12 6.19998 12Z" fill="black"/>
<path d="M9.69998 12C9.99998 12 10.3 11.7 10.3 11.4V5.69998C10.3 5.39998 9.99998 5.09998 9.69998 5.09998C9.39998 5.09998 9.09998 5.49998 9.09998 5.69998V11.4C9.09998 11.7 9.29998 12 9.69998 12Z" fill="black"/>
</g>
</svg>
