<svg width="75" height="72" fill="none" xmlns="http://www.w3.org/2000/svg"><path d="M64.58 21.552H41.5c12.842-6.421 13.866-10.516 13.4-12.75-1.116-3.721-5.304-6.513-9.305-5.024-5.211 1.954-6.607 9.678-8.003 15.261-1.861-5.676-3.536-12.842-7.63-16.47-1.21-1.024-2.885-2.141-5.398-1.862-3.722.372-9.12 5.025-6.979 10.236 2.14 5.025 9.027 8.19 13.586 10.702H10.42a2.7 2.7 0 0 0-2.698 2.698V34.86a2.7 2.7 0 0 0 2.699 2.698h.279V71.336h53.786V37.466h.093a2.7 2.7 0 0 0 2.699-2.7V24.25a2.7 2.7 0 0 0-2.699-2.698zM47.177 6.104c1.954-.279 4.653 1.21 4.932 2.978.372 2.606-3.164 4.932-4.746 5.956-2.326 1.582-4.56 2.42-6.793 3.815.837-3.443 2.326-12.097 6.607-12.749zm-21.31 9.306c-2.047-1.396-6.049-4.095-5.955-7.258.093-3.35 5.304-6.142 8.188-3.63 3.63 3.164 5.305 10.33 6.607 15.448-2.977-1.396-5.862-2.606-8.84-4.56zm5.583 53.135H13.4v-31.08H31.45v31.08zm0-33.966H10.514V24.343H31.45V34.58zm9.492 0v33.966h-6.7V24.436h6.7V34.58zm20.752 33.966H43.642v-31.08h18.053v31.08zm2.698-33.966H43.642V24.343h20.751V34.58z" fill="#81B3D2"/></svg>