<svg width="80" height="72" viewBox="0 0 80 72" fill="none" xmlns="http://www.w3.org/2000/svg">
<path d="M31.7 65H47.7V41.2H31.7C31.7 41.2 31.7 65 31.7 65ZM34.6 44.0999H44.7V62.0999H34.6V44.0999Z" fill="#81B3D2"/>
<path d="M74.8 39.3L76.9 37.2L67 27.3V0H53.1V13.6L39.5 0L2.20001 37.2L4.30001 39.3L12.1 31.5V69.1H8.10001V72H72V69.1H66.9V31.5L74.8 39.3ZM64 69.1H15V28.5L39.5 4.1L64 28.5V69.1ZM64 24.4L56.1 16.5V2.9H64V24.4Z" fill="#81B3D2"/>
<path d="M31.9 27.1C31.9 31.4 35.4 34.8 39.6 34.8C43.9 34.8 47.4 31.3 47.4 27.1C47.4 22.8 43.9 19.4 39.6 19.4C35.4 19.4 31.9 22.8 31.9 27.1ZM39.7 22.1C42.4 22.1 44.7 24.3 44.7 27C44.7 29.7 42.5 31.9 39.7 31.9C37 31.9 34.7 29.7 34.7 27C34.7 24.3 36.9 22.1 39.7 22.1Z" fill="#81B3D2"/>
<path d="M22.1 41.2H19.1V45.0999H22.1V41.2Z" fill="#81B3D2"/>
<path d="M28 41.2H25V45.0999H28V41.2Z" fill="#81B3D2"/>
<path d="M22.1 47.2H19.1V51.0999H22.1V47.2Z" fill="#81B3D2"/>
<path d="M28 47.2H25V51.0999H28V47.2Z" fill="#81B3D2"/>
<path d="M54 41.2H51V45.0999H54V41.2Z" fill="#81B3D2"/>
<path d="M59.9 41.2H56.9V45.0999H59.9V41.2Z" fill="#81B3D2"/>
<path d="M54 47.2H51V51.0999H54V47.2Z" fill="#81B3D2"/>
<path d="M59.9 47.2H56.9V51.0999H59.9V47.2Z" fill="#81B3D2"/>
</svg>
