<svg xmlns="http://www.w3.org/2000/svg" width="80" height="78" fill="none"><path fill="#81B3D2" d="M72.737 24.28h-27.9c15.525-6.541 16.763-10.713 16.2-12.988-1.35-3.792-6.412-6.636-11.25-5.12-6.3 1.992-7.987 9.86-9.675 15.549-2.25-5.783-4.275-13.083-9.225-16.78-1.462-1.043-3.487-2.181-6.524-1.897-4.5.38-11.025 5.12-8.438 10.429 2.587 5.12 10.912 8.342 16.425 10.902H7.263c-1.8 0-3.263 1.233-3.263 2.75v10.712c0 1.517 1.463 2.75 3.263 2.75H7.6V75h65.025V40.492h.112c1.8 0 3.263-1.233 3.263-2.75V27.03c0-1.517-1.463-2.75-3.263-2.75ZM51.7 8.543c2.362-.285 5.625 1.232 5.962 3.034.45 2.654-3.825 5.024-5.737 6.067-2.813 1.612-5.512 2.465-8.212 3.887 1.012-3.508 2.812-12.324 7.987-12.988Zm-25.763 9.48c-2.475-1.422-7.312-4.171-7.2-7.394.113-3.413 6.413-6.257 9.9-3.698 4.388 3.224 6.413 10.523 7.988 15.738-3.6-1.422-7.087-2.655-10.688-4.646Zm6.75 54.133H10.863V40.492h21.825v31.664Zm0-34.603H7.375V27.124h25.313v10.429Zm11.476 0v34.603h-8.1V27.219h8.1v10.334ZM69.25 72.156H47.425V40.492H69.25v31.664Zm3.263-34.603H47.425V27.124h25.088v10.429Z"/></svg>