<svg width="18" height="18" viewBox="0 0 18 18" fill="none" xmlns="http://www.w3.org/2000/svg">
<g clip-path="url(#clip0_16752_97)">
<path d="M18 16.4999L14.3 12.7999C15.3 11.4999 16 9.7999 16 7.8999C16 3.4999 12.4 -0.100098 8 -0.100098C3.6 -0.100098 0 3.5999 0 7.9999C0 12.3999 3.6 15.9999 8 15.9999C9.8 15.9999 11.5 15.3999 12.9 14.2999L16.6 17.9999L18 16.4999ZM8 13.9999C4.7 13.9999 2 11.2999 2 7.9999C2 4.6999 4.7 1.9999 8 1.9999C11.3 1.9999 14 4.6999 14 7.9999C14 11.2999 11.3 13.9999 8 13.9999Z" fill="black"/>
</g>
<defs>
<clipPath id="clip0_16752_97">
<rect width="18" height="18" fill="white"/>
</clipPath>
</defs>
</svg>
