<svg width="18" height="15" viewBox="0 0 18 15" fill="none" xmlns="http://www.w3.org/2000/svg">
<g clip-path="url(#clip0_13_970)">
<path d="M11.6 0.154158C13.4 -0.345842 14.8 0.454157 15.4 1.35416C16.1 1.15416 16.8 0.854158 17.5 0.654158C17.5 1.55416 16.9 2.15416 16.6 2.45416C17.3 2.55416 18 1.85416 18 1.85416C17.8 2.85416 16.9 3.65416 16.3 3.85416C16.1 10.6542 13 15.0542 5.7 14.9542C5.1 14.9542 5.8 14.9542 5.2 14.9542C4.8 14.9542 0.8 14.4542 0 13.0542C2.4 13.2542 4.1 12.6542 5 11.8542C4 11.5542 2.1 11.4542 1.8 8.95416C2.2 9.05416 2.4 9.15416 3.1 9.05416C1.8 8.25416 0.4 7.45416 0.5 5.25416C0.8 5.55416 1.6 5.75416 1.9 5.75416C1.1 5.55416 -0.2 2.45416 0.9 0.854158C2.8 2.75416 4.9 4.45416 8.5 4.65416C8.7 2.25416 9.7 0.754158 11.6 0.154158Z" fill="#68A2CA"/>
</g>
<defs>
<clipPath id="clip0_13_970">
<rect width="18" height="15" fill="white"/>
</clipPath>
</defs>
</svg>
