<svg xmlns="http://www.w3.org/2000/svg" width="188" height="46" fill="none"><path fill="#81B3D3" d="M187.7 37.4v7.7h-20.8V.4h20.8V8h-13.2v10.8H185v7.7h-10.5v10.9h13.2ZM154.9.4h7.6v44.7h-7.6v-22l-3 11.4h-7.4l-3-11.4v22h-7.6V.4h7.6l6.8 21.6L154.9.4ZM123 8h-5.5v29.3h5.5V8Zm3-7.6c2.5 0 4.7 2.1 4.7 4.7v35.3c0 2.6-2.2 4.7-4.7 4.7h-11.4c-2.6 0-4.7-2.2-4.7-4.7V5.1c0-2.6 2.1-4.7 4.7-4.7H126ZM98 28.6l7.7-1.8v13.6c0 2.6-2.2 4.7-4.7 4.7H89.6c-2.6 0-4.7-2.2-4.7-4.7V5.1c0-2.6 2.1-4.7 4.7-4.7H101c2.5 0 4.7 2.1 4.7 4.7v9.1L98 16V8h-5.5v29.3H98v-8.7Zm-16.8 8.8v7.7H63V.4h7.6v37h10.6Zm-21.4 0v7.7H39V.4h20.8V8H46.6v10.8h10.5v7.7H46.6v10.9h13.2ZM27.6.4h7.7L34 45.1H19.5l-2-18.5-2 18.5H1L0 .4h7.6l.6 37H9l4.8-37h7.6l4.9 37h.8l.5-37Z"/></svg>